<svg width="88" height="24" viewBox="0 0 88 24" xmlns="http://www.w3.org/2000/svg" aria-hidden="true" focusable="false"><title>Stripe</title><path fill="#635BFF" d="M10.7 4.6c-3 0-5.3 1.5-5.3 4 0 2.6 2.6 3.5 4.6 4l.4.1c1.2.3 2.3.6 2.3 1.3 0 .6-.6 1-1.7 1-1.1 0-2.5-.4-3.6-1.1l-.2-.1-1.2 3.8.2.1c1.3.6 3 .9 4.7.9 3.2 0 5.6-1.5 5.6-4.1 0-2.7-2.6-3.6-4.6-4.1l-.4-.1c-1.2-.3-2.3-.6-2.3-1.2 0-.5.6-.9 1.6-.9.9 0 2 .3 3 .8l.2.1 1.1-3.6-.2-.1c-1.1-.5-2.6-.8-4.1-.8Zm16.9.3h-4.3l-2.7 11.7h4.6l2.4-11.7Zm-8.7 0h-4.5l-2.7 11.7h4.5l2.7-11.7Zm19.9 0h-4.4l-4.3 11.7h4.8l.6-1.8h4.3l.4 1.8h4.7L38.8 4.9Zm-2.1 3.3 1 4.6h-2.7l1.7-4.6ZM61.8 4.9h-4.4l-2.7 11.7h4.5l2.6-11.7Zm3.7 0-.7 3.2h2.9l-2 8.5h4.5l2-8.5h3l.7-3.2h-10.4Z"/></svg>
